<svg xmlns="http://www.w3.org/2000/svg" id="_图层_2" data-name="图层 2" viewBox="0 0 192 192"><defs><style>.cls-1{fill:none;stroke:#000;stroke-linecap:round;stroke-linejoin:round;stroke-width:12px}</style></defs><path d="M145.26 28h.02v134.96s-.02.03 0 .04H46.13V28.04s.02-.03 0-.04h99.13m.02-12H46.13c-6.6 0-12 5.4-12 12v135c0 6.6 5.4 12 12 12h99.16c6.6 0 12-5.4 12-12V28c0-6.6-5.4-12-12-12Z"/><path d="M44.56 169H22l18.39-14" class="cls-1"/><ellipse cx="95.71" cy="76" class="cls-1" rx="32.36" ry="31"/><ellipse cx="102.49" cy="67.5" class="cls-1" rx="3.65" ry="3.5"/><path d="M151.02 37c13.35 10.85 19.27 17.51 17.74 20-1.21 1.98-7.13 1.31-17.74-2" class="cls-1"/></svg>