<svg xmlns="http://www.w3.org/2000/svg" data-name="图层 2" viewBox="0 0 192 192"><path d="M63.58 120.96c.82 1.59 16.6-6.04 40.36-12.23 1.78-.46-.51.15 19.57-3.67 8.95-1.7 18.57-3.57 20.79 0 .28.46.98 1.85 1.22 3.67.39 2.88-.68 4.26 0 4.89 1.03.95 4.96-.78 7.34-3.67.46-.55 3.58-4.46 2.45-8.56-1.2-4.32-5.91-4.39-6.11-7.34-.11-1.64 1.29-3.2 11.01-9.78 7.35-4.98 10.04-6.09 9.78-7.34-.39-1.87-6.66-.61-17.12-2.45-11.25-1.97-13.89-5.16-20.79-3.67-5.34 1.16-10.14 4.45-9.78 6.11.19.92 1.88.93 6.11 2.45 4.79 1.71 7.21 2.51 7.34 3.67.11 1.04-1.5 2.14-11.01 6.11-10.98 4.59-12.97 4.86-14.68 4.89-5.63.1-9.7-2.34-12.23-3.67-10.19-5.34-20.61-5.67-34.24-6.11-20.06-.65-41.75 6.88-41.58 12.23.15 4.79 17.88 8.57 26.91 9.78 15.46 2.08 25.9-.61 26.91 2.45 1.21 3.69-13.01 10.71-12.23 12.23Z" style="fill:none;stroke:#000;stroke-linecap:round;stroke-linejoin:round;stroke-width:12px"/><circle cx="147" cy="82" r=".5" style="stroke-width:5px;fill:none;stroke:#000;stroke-linecap:round;stroke-linejoin:round"/></svg>