<svg xmlns="http://www.w3.org/2000/svg" data-name="图层 2" viewBox="0 0 192 192"><path d="M140.6 149.07a75.234 75.234 0 0 1-48.84 17.94 75.355 75.355 0 0 1-63.36-34.55 6.747 6.747 0 0 1 1.96-9.34c.13-.09.27-.17.41-.25 2.98-1.63 6.81-.82 8.64 2.04a62.072 62.072 0 0 0 52.35 28.77c34.39-.05 62.23-27.97 62.19-62.36 0-4.14-.42-8.26-1.25-12.31-4.9-24.97-25.52-44.78-50.64-48.83-25.75-4.3-51.44 7.95-64.31 30.66-1.82 3.06-5.75 4.12-8.85 2.38-3.18-1.73-4.53-5.77-2.74-8.91 15.71-27.8 47.23-42.69 78.68-37.18 32.42 5.44 57.97 32.48 61.86 65.12a75.39 75.39 0 0 1-17.38 58.11c2.41-.05 4.74.89 6.45 2.6l17.76 17.76c3.53 3.4 3.63 9.03.23 12.56-3.4 3.53-9.03 3.63-12.56.23-.08-.07-.15-.15-.23-.23l-17.76-17.76a8.834 8.834 0 0 1-2.6-6.45Z"/><path d="M16.27 95.96c0-3.7 2.98-6.66 6.66-6.66h24.74L63.6 57.46c1.64-3.29 5.65-4.62 8.94-2.98a6.63 6.63 0 0 1 2.8 2.65l29.35 51.36 12.19-24.39a6.674 6.674 0 0 1 5.95-3.69h8.88a6.658 6.658 0 0 1 6.71 6.61 6.658 6.658 0 0 1-6.61 6.71h-4.85l-15.92 31.84a6.657 6.657 0 0 1-11.74.33L69.95 74.54 57.76 98.93a6.66 6.66 0 0 1-5.96 3.69H22.96c-3.68 0-6.66-2.98-6.68-6.66Z"/></svg>