<svg xmlns="http://www.w3.org/2000/svg" id="_图层_2" data-name="图层 2" viewBox="0 0 192 192"><defs><style>.cls-1{stroke:#000;stroke-linecap:round;stroke-linejoin:round;stroke-width:3px}</style></defs><path d="M74.05 117.78c-14.7 0-19.82-2.37-23.84-6.76-2.96-3.25-6.53-9.12-6.61-18.62-.1-10.45 5.26-21.67 14.73-30.81 9.46-9.13 21.95-15.03 34.24-16.15 12.65-1.17 25.8 2.4 37.01 10.07 10.85 7.42 18.25 17.66 20.3 28.11.6 3 2.15 10.99-2.15 18.49-4.22 7.35-12.27 11.19-48.87 14.32-10.47.91-18.52 1.34-24.81 1.34h0v.02h0ZM51.51 92.36c.07 6.98 2.52 11.12 4.56 13.35 3.11 3.42 8.19 5.79 42.12 2.87 35.65-3.07 40.53-6.68 42.66-10.4 2.83-4.95 1.72-10.62 1.24-13.04-3.22-16.51-25.26-34.01-48.82-31.83-10.55.99-21.29 6.08-29.49 13.99-7.91 7.63-12.4 16.76-12.3 25.03l-3.96.04 3.97-.02h.02Z" class="cls-1"/><path d="M89.85 65.06c-3.89 2.73-3.32 9.44-2.57 18.41.73 8.84 1.25 15.2 5.51 17.37 4.92 2.52 11.7-2.18 18.24-6.71 5.97-4.14 10.83-7.5 10.68-12.04s-5.16-7.49-11.36-11.16c-6.82-4.08-15.55-9.31-20.46-5.86h-.02Zm44.2 61.16c.78 1.05.56 2.54-.49 3.32-.07.05-.15.1-.24.15a69.993 69.993 0 0 1-55.37 6.06 2.38 2.38 0 0 1-1.68-2.27v-.12c0-1.32 1.07-2.38 2.37-2.38.27 0 .53.04.79.14 17.08 6.14 36.03 4.08 51.41-5.54 1.06-.66 2.44-.39 3.18.61l.03.04h0Z" class="cls-1"/><path d="M172.27 94.1c-1.68-7.25-5.75-20.67-14.11-28.88-.1-.1-.24-.24-.4-.38a83.89 83.89 0 0 1-9.9-11.38c-.78-1.09-1.12-1.59-1.49-2.19-.33-.52-.73-1.13-1.44-2.15-.49-.71-12.31-17.48-26.24-21.99-1.56-.51-3.2-.71-4.83-.6-2.96.27-5.07 1.66-6.46 2.55l-.03.02c-3.38 2.24-5.65 3.72-6.27 4.05-.87.47-1.16.47-3.1.33-2.2-.21-4.44-.24-6.66-.08-3.01.19-6 .71-8.88 1.58-2.13.61-3 .85-4.95.41h-.03l-.36-.16c-.78-.36-2.41-1.09-6.48-2.74-3.62-1.47-6.38-2.53-9.75-3.57-5.76-1.79-9.04-2.3-12.12-.62-2.63 1.47-3.76 3.84-4.37 5.12-4.84 10.23-7.5 15.87-8.61 25.21-.02.19-.04.43-.05.72-.02.95-.2 1.88-.5 2.77a8.941 8.941 0 0 1-1.95 3.11l-.05.06c-4.05 4.35-10.92 18.9-13.33 28.3-4.69 18.3 2.37 34.94 3.19 36.78 9.11 20.41 28.99 28.57 36.49 31.65 11.33 4.64 24.61 7.02 38.07 7.02 8.68 0 17.34-.99 25.79-2.99 10.71-2.56 20.44-6.75 28.23-12.12 8.62-5.96 14.78-13.21 18.31-21.57 6.97-16.55 2.77-36.12 2.27-38.3v.04h-.02Zm-11.04 38.31c-3.84-8.65-18.2-13.76-20.26-11.6-1.41 1.47 3.56 5.59 6.16 16.73.67 2.97 1.11 6 1.33 9.03-7.12 5.23-16.22 9.3-26.79 11.83-19.78 4.74-41.86 3.37-59.02-3.66-.92-.38-1.97-.81-3.17-1.33.21-2.74.62-5.44 1.22-8.12 2.59-11.15 7.58-15.26 6.16-16.73-2.39-2.5-21.26 4.74-21.21 15.95 0 .4.03.8.08 1.2a50.3 50.3 0 0 1-8.04-7.25c.88-2.13 1.91-4.19 3.07-6.17 5.59-9.45 11.3-11.79 10.46-13.55-1.3-2.6-16.27-2.01-22.13 5.08-1.82-5.42-4.47-16.42-1.46-28.22 2.37-9.27 8.82-22.04 11.44-24.85l.04-.04c1.59-1.68 2.82-3.65 3.62-5.82.58-1.61.91-3.3.97-5.02v-.26c.96-8.05 3.29-12.97 7.91-22.77.38-.79.66-1.38 1.05-1.59h.03c.17-.04 1.22-.17 5.9 1.27 3.09.96 5.68 1.95 9.1 3.33 3.92 1.6 5.45 2.28 6.21 2.61.62.3 1.24.51 1.91.66 3.9.87 6.3.2 8.82-.52 2.36-.73 4.78-1.17 7.25-1.33 1.85-.12 3.69-.08 5.53.08 2.32.2 4.52.36 7.49-1.24.92-.49 2.64-1.66 6.84-4.41l.03-.02c1.12-.74 1.85-1.19 2.78-1.28.58-.03 1.16.05 1.71.24 11.38 3.68 22.08 18.83 22.19 18.99.63.91.96 1.41 1.28 1.91.43.66.83 1.3 1.73 2.53a91.7 91.7 0 0 0 10.79 12.42l.36.33c7.2 7.07 10.76 19.86 11.94 25.03.8 3.81 1.28 7.68 1.43 11.56-5.85-3.13-14.07-3.09-14.96-1.3-.74 1.53 4.16 3.55 8.9 11.77 2.3 4 3.07 6.81 3.89 8.27-.33 1.05-.71 2.1-1.15 3.11s-.93 2.09-1.47 3.09h.04l.02.03h0Z" class="cls-1"/></svg>