<svg xmlns="http://www.w3.org/2000/svg" data-name="图层 2" viewBox="0 0 192 192"><path d="M73.84 115.78c-14.73 0-19.87-2.38-23.89-6.78-2.97-3.26-6.54-9.14-6.63-18.66-.1-10.47 5.27-21.72 14.76-30.88 9.48-9.15 22-15.06 34.32-16.19 12.68-1.17 25.86 2.41 37.09 10.09 10.87 7.44 18.29 17.7 20.35 28.17.6 3.01 2.15 11.02-2.15 18.53-4.23 7.37-12.3 11.22-48.98 14.35-10.49.91-18.56 1.34-24.87 1.34h.01v.02ZM51.25 90.29c.07 7 2.53 11.15 4.57 13.38 3.12 3.43 8.21 5.8 42.22 2.88 35.73-3.08 40.62-6.7 42.76-10.42 2.84-4.96 1.72-10.64 1.24-13.07-3.23-16.55-25.32-34.09-48.93-31.9-10.57.99-21.34 6.09-29.56 14.02-7.93 7.65-12.43 16.8-12.33 25.09l-3.97.04 3.98-.02h.02Z"/><path d="M89.68 62.94c-3.9 2.74-3.33 9.46-2.58 18.45.73 8.86 1.25 15.23 5.52 17.41 4.93 2.53 11.73-2.18 18.28-6.73 5.98-4.15 10.85-7.52 10.7-12.07s-5.17-7.51-11.39-11.19c-6.84-4.09-15.59-9.33-20.51-5.87h-.02Zm44.3 61.3c.78 1.05.56 2.55-.49 3.33-.07.05-.15.1-.24.15a70.15 70.15 0 0 1-55.5 6.07c-1-.31-1.68-1.23-1.68-2.28v-.12c0-1.32 1.07-2.39 2.38-2.39.27 0 .53.04.79.14 17.12 6.15 36.11 4.09 51.53-5.55a2.39 2.39 0 0 1 3.19.61l.03.04h-.01Z"/><path d="M172.29 92.05c-1.68-7.27-5.76-20.72-14.14-28.95-.1-.1-.24-.24-.4-.38-3.64-3.5-6.96-7.3-9.92-11.41-.78-1.09-1.12-1.59-1.49-2.19-.33-.52-.73-1.13-1.44-2.15-.49-.71-12.34-17.52-26.3-22.04-1.56-.51-3.21-.71-4.84-.6-2.97.27-5.08 1.66-6.47 2.56l-.03.02c-3.39 2.25-5.66 3.73-6.28 4.06-.87.47-1.16.47-3.11.33-2.21-.21-4.45-.24-6.68-.08-3.02.19-6.01.71-8.9 1.58-2.13.61-3.01.85-4.96.41h-.03l-.36-.16c-.78-.36-2.42-1.09-6.49-2.75-3.63-1.47-6.39-2.54-9.77-3.58-5.77-1.79-9.06-2.31-12.15-.62-2.64 1.47-3.77 3.85-4.38 5.13-4.85 10.25-7.52 15.91-8.63 25.27-.02.19-.04.43-.05.72-.02.95-.2 1.88-.5 2.78a9.228 9.228 0 0 1-1.95 3.12l-.05.06c-4.06 4.36-10.94 18.94-13.36 28.36-4.7 18.34 2.38 35.02 3.2 36.86 9.13 20.46 29.06 28.64 36.57 31.72 11.36 4.65 24.67 7.04 38.16 7.04 8.7.01 17.38-.99 25.85-3 10.73-2.57 20.49-6.77 28.29-12.15 8.64-5.97 14.81-13.24 18.35-21.62 6.99-16.59 2.78-36.2 2.28-38.39v.04Zm-11.07 38.39c-3.85-8.67-18.24-13.79-20.31-11.63-1.41 1.47 3.57 5.6 6.17 16.77.67 2.98 1.11 6.01 1.33 9.05-7.14 5.24-16.26 9.32-26.85 11.86-19.83 4.75-41.96 3.38-59.15-3.67-.92-.38-1.97-.81-3.18-1.33.21-2.75.62-5.45 1.22-8.14 2.6-11.18 7.6-15.29 6.17-16.77-2.4-2.51-21.31 4.75-21.26 15.99 0 .4.03.8.08 1.2a50.609 50.609 0 0 1-8.06-7.27c.88-2.13 1.91-4.2 3.08-6.18 5.6-9.47 11.33-11.82 10.48-13.58-1.3-2.61-16.31-2.01-22.18 5.09-1.82-5.43-4.48-16.46-1.46-28.28 2.38-9.29 8.84-22.09 11.47-24.91l.04-.04c1.59-1.68 2.83-3.66 3.63-5.83.58-1.61.91-3.31.97-5.03v-.26c.96-8.07 3.3-13 7.93-22.82.38-.79.66-1.38 1.05-1.59h.03c.17-.04 1.22-.17 5.91 1.27 3.1.96 5.69 1.95 9.12 3.34 3.93 1.6 5.46 2.29 6.22 2.62.62.3 1.24.51 1.91.66 3.91.87 6.31.2 8.84-.52 2.37-.73 4.79-1.17 7.27-1.33 1.85-.12 3.7-.08 5.54.08 2.33.2 4.53.36 7.51-1.24.92-.49 2.65-1.66 6.86-4.42l.03-.02c1.12-.74 1.85-1.19 2.79-1.28.58-.03 1.16.05 1.71.24 11.41 3.69 22.13 18.87 22.24 19.03.63.91.96 1.41 1.28 1.91.43.66.83 1.3 1.73 2.54 3.23 4.46 6.84 8.63 10.81 12.45l.36.33c7.22 7.09 10.78 19.91 11.97 25.09.8 3.82 1.28 7.7 1.43 11.59-5.86-3.14-14.1-3.1-14.99-1.3-.74 1.53 4.17 3.56 8.92 11.8 2.31 4.01 3.08 6.83 3.9 8.29-.33 1.05-.71 2.1-1.15 3.12s-.93 2.09-1.47 3.1h.04l.02.03Z"/></svg>