<svg xmlns="http://www.w3.org/2000/svg" id="_图层_2" data-name="图层 2" viewBox="0 0 192 192"><defs><style>.cls-1{fill:none;stroke:#000;stroke-linecap:round;stroke-linejoin:round;stroke-width:12px}</style></defs><path d="M96.33 22c-8.4 6.29-20.13 16.18-31.81 30.43-9.7 11.84-16.58 20.23-20.75 33.19-2.17 6.75-10.18 31.66 4.15 55.32 1.65 2.72 17.89 28.52 48.41 29.05 32.96.57 50.3-28.89 51.17-30.43 13.71-24.23 4.51-49.2 2.77-53.94-4.11-11.15-11.5-19.42-26.28-35.96A348.1 348.1 0 0 0 96.33 22Z" class="cls-1"/><circle cx="95.3" cy="73.12" r="13.12" class="cls-1"/><path d="M76 97c-.75.2-1.56 1.31-2 14-.25 7.1-.17 11.82 0 16 .45 11.28 1.33 12.96 2 14 3.07 4.77 8.49 6.51 10 7 3.15 1.02 5.83 1.01 9 1 2.31 0 5.39-.01 9-1 3.12-.85 8.24-2.25 12-7 3.71-4.69 3.92-9.9 4-12 .09-2.26.19-6.04-2-10-.83-1.49-3.54-6.4-8-7-3.91-.52-4.9 2.84-10 3-4.03.12-7.2-1.87-9-3-1.12-.7-2.43-1.74-8-8-5.08-5.72-5.93-7.29-7-7Z" class="cls-1"/></svg>