<svg xmlns="http://www.w3.org/2000/svg" id="_图层_2" data-name="图层 2" viewBox="0 0 192 192"><defs><style>.cls-1{fill:none;stroke:#000;stroke-linecap:round;stroke-linejoin:round;stroke-width:12px}</style></defs><path d="m56.95 21.59-1.15 1.26L25 56.57M89 56.57 55.8 22.85M55.8 51.02l2.69 5.55M40.97 66H72.4L55.8 91.93M109.6 22v68l42.73-.37V22H109.6zM150.44 53.13H109.6M26 134l23-1M36 111l.65 22.03.85 29.03" class="cls-1"/><path d="m23 152 13.65-18.97L50.06 152M69 105l4.06 6M54 119h34.87M65 129l-8 10M79.94 129l4.33 4.14 4.6 4.41M61 159l23.27-25.86M61 133.5 82 159M108.45 109v57.89L157 168v-59l-49-1M126 123h12.83M121 136h24M123 155l6-17M138.83 148.51l4.6 6.49" class="cls-1"/></svg>