<svg xmlns="http://www.w3.org/2000/svg" id="_图层_2" data-name="图层 2" viewBox="0 0 192 192"><defs><style>.cls-1{fill:none;stroke:#000;stroke-linecap:round;stroke-linejoin:round;stroke-width:12px}</style></defs><circle cx="96.45" cy="96.01" r="21.75"/><path d="M54.59 128.58c-20.17-11.9-31.88-32.93-29.21-53.02 3.89-29.29 36.32-41.21 44.17-44.1 2.88-1.06 17.66-6.28 37.17-3.82 15.73 1.98 27.3 8.04 33.55 11.93" class="cls-1"/><path d="M54.59 128.58c-3.91-5.33-10.51-16.07-10.12-29.79.75-26.53 27.04-42.36 35.99-47.74 24.71-14.88 50.05-12.81 59.83-11.46M139.32 64.03c19.94 12.28 31.24 33.53 28.19 53.57-4.45 29.21-37.11 40.5-45.01 43.24-2.9 1-17.77 5.94-37.24 3.1-15.69-2.29-27.14-8.57-33.32-12.57" class="cls-1"/><path d="M139.32 64.03c3.8 5.4 10.2 16.27 9.55 29.98-1.26 26.51-27.85 41.83-36.9 47.04-25 14.4-50.28 11.85-60.03 10.31" class="cls-1"/></svg>