<svg xmlns="http://www.w3.org/2000/svg" xml:space="preserve" id="_图层_2" x="0" y="0" style="enable-background:new 0 0 192 192" version="1.1" viewBox="0 0 192 192"><style>.st0{fill:#fff;stroke:#000;stroke-width:12;stroke-linecap:round;stroke-linejoin:round}</style><path d="M62 22h67c6.6 0 12 5.4 12 12v124c0 6.6-5.4 12-12 12H62c-6.6 0-12-5.4-12-12V34c0-6.6 5.4-12 12-12z" class="st0"/><path d="M69.5 109h52.3m.2 0c1.3-16.3-10.9-30-25-30.9-15.3-1.1-30.2 13-29 30.9m15.5-28L76 69m29.8 9 8.4-9" style="fill:none;stroke:#000;stroke-width:12;stroke-linecap:round;stroke-linejoin:round"/><circle cx="87" cy="95.1" r=".5" class="st0"/><circle cx="103.3" cy="95.1" r=".5" class="st0"/></svg>