<svg xmlns="http://www.w3.org/2000/svg" id="_图层_2" data-name="图层 2" viewBox="0 0 192 192"><defs><style>.cls-1{fill:none;stroke:#000;stroke-linecap:round;stroke-linejoin:round;stroke-width:12px}</style></defs><path d="M21.94 32.92c20.12 0 40.24.02 60.36.02M82.38 32.92c-.09 4.99-.95 18.51-9.91 31.12-13.25 18.64-33.49 20.2-36.66 20.39M105.78 85.43V32.06H168v53.37M168 76.26h-62.45" class="cls-1"/><circle cx="87.41" cy="24.01" r="1.01" class="cls-1"/><path d="M23.95 125.49s57.25-18.6 58.34-18.25-9.99 20.48-9.99 20.48" class="cls-1"/><path d="M35.81 100.3v66.59L82.29 168M105.78 117.48H168V168h-17.4" class="cls-1"/><path d="M133.48 101.54c1.77 8.82 3.51 25.53-4.97 44.31-4.28 9.48-9.98 16.86-14.9 22.15" class="cls-1"/></svg>