<svg xmlns="http://www.w3.org/2000/svg" id="_图层_2" data-name="图层 2" viewBox="0 0 192 192"><defs><style>.cls-1{fill:none;stroke:#000;stroke-linecap:round;stroke-linejoin:round;stroke-width:12px}</style></defs><path d="M109.74 75.65c0 5.69 4.13 10.3 9.23 10.3s9.23-4.61 9.23-10.3M128.19 75.65v-38.9" class="cls-1"/><path d="M52.03 86.76c0 3.4 2.75 6.15 6.15 6.15s6.15-2.75 6.15-6.15h-12.3ZM58.18 61.94c-3.4 0-6.15 2.75-6.15 6.15s2.75 6.15 6.15 6.15v-12.3ZM70.76 129.92l1.86-6.84-1.86 6.84zM78.34 117.68c3.49 1.78 7.75.39 9.53-3.1s.39-7.75-3.1-9.53c-.03-.02-.07-.03-.1-.05l-6.34 12.68ZM63.17 142.15c-3.51-1.72-7.76-.27-9.48 3.24-1.7 3.48-.3 7.68 3.14 9.43l6.34-12.68Z"/><path d="M52.03 43.7h12.3v43.05h-12.3zM64.33 31.4h8.27v12.3h-8.27z"/><path d="M58.18 61.94H72.6v12.3H58.18zM72.6 43.7c1.2 0 2.38.24 3.49.69l4.71-11.36c-2.6-1.08-5.38-1.63-8.2-1.63v12.3ZM76.09 44.4c1.11.46 2.11 1.13 2.96 1.98l8.7-8.7a21.294 21.294 0 0 0-6.95-4.64L76.09 44.4ZM79.05 46.38c.85.85 1.52 1.85 1.98 2.96l11.36-4.71c-1.08-2.6-2.65-4.96-4.64-6.95l-8.7 8.7Z"/><path d="M81.03 49.33c.46 1.11.69 2.29.69 3.49h12.3c0-2.81-.55-5.6-1.63-8.2l-11.36 4.71ZM81.72 52.82c0 1.2-.24 2.38-.69 3.49l11.36 4.71c1.08-2.6 1.63-5.38 1.63-8.2h-12.3Z"/><path d="M81.03 56.31a9.107 9.107 0 0 1-1.98 2.96l8.7 8.7c1.99-1.99 3.57-4.35 4.64-6.95l-11.36-4.71Z"/><path d="M79.05 59.27c-.85.85-1.85 1.52-2.96 1.98l4.71 11.36c2.6-1.08 4.96-2.65 6.95-4.64l-8.7-8.7Z"/><path d="M76.09 61.25c-1.11.46-2.29.69-3.49.69v12.3c2.81 0 5.6-.55 8.2-1.63l-4.71-11.36ZM70.76 101.32c-3.98 0-8.34 1.36-11.81 4.32-3.64 3.11-6.03 7.76-6.03 13.52h14.17c0-1.58.54-2.3 1.06-2.73.68-.58 1.7-.93 2.61-.93v-14.17Z"/><path d="M52.92 119.16c0 7.57 5.25 12.12 8.66 14.29 1.55.98 3.19 1.81 4.9 2.48.76.3 1.53.56 2.31.79l.06.02h.03l1.87-6.83q1.86-6.84 1.87-6.84h.02-.01c-.33-.1-.66-.22-.98-.35-.87-.34-1.7-.76-2.49-1.25-1.97-1.25-2.09-2.08-2.09-2.33H52.9ZM70.76 115.5c1.24 0 3.02.42 4.85 1.06.89.31 1.76.67 2.62 1.07l.12.06h.02l3.17-6.34 3.17-6.34h-.01l-.03-.02c-.42-.2-.84-.4-1.26-.58-1-.44-2.01-.84-3.04-1.2-2.33-.82-5.92-1.87-9.57-1.87v14.17ZM70.76 158.51c3.98 0 8.34-1.36 11.81-4.32 3.64-3.11 6.03-7.76 6.03-13.52H74.43c0 1.57-.54 2.3-1.06 2.73-.68.58-1.7.93-2.61.93v14.17Z"/><path d="M88.59 140.67c0-7.57-5.25-12.12-8.66-14.29-1.55-.98-3.19-1.81-4.9-2.48-.7-.28-1.42-.53-2.14-.75-.08-.02-.15-.04-.23-.07h-.02s-.01 0-.02-.01l-1.87 6.84q-1.86 6.84-1.87 6.84h-.02.01l.17.06c.17.06.46.15.81.29.73.29 1.63.71 2.49 1.25 1.97 1.25 2.09 2.08 2.09 2.33H88.6ZM70.76 144.33c-1.24 0-3.02-.42-4.85-1.06a29.5 29.5 0 0 1-2.73-1.12h-.02l-3.17 6.34-3.17 6.34h.01l.03.02.09.04.27.13c1.29.6 2.61 1.14 3.95 1.61 2.33.82 5.92 1.87 9.57 1.87v-14.17ZM64.33 43.7V31.4c-6.79 0-12.3 5.51-12.3 12.3h12.3Z"/><path d="M109.62 107.59v45.12m0-22.61h11.61l18.27-21.9m-18.37 21.9 20.39 22.51" class="cls-1"/><path d="M38.45 22.4v146.73L157 170V22.4H38.45z" class="cls-1"/></svg>