<svg xmlns="http://www.w3.org/2000/svg" xml:space="preserve" id="_图层_2" x="0" y="0" style="enable-background:new 0 0 192 192" version="1.1" viewBox="0 0 192 192"><style>.st0{fill:none;stroke:#000;stroke-width:12;stroke-linecap:round;stroke-linejoin:round}</style><path d="M78.4 39.1c-12.1 11-18.1 16.6-21.2 18.4-17.7 10.2-30.2 3-34.3 10.4-5.6 10 17.2 23 14.5 45.9-1.2 10.5-6.4 11.7-6.6 23.6 0 2.7-.4 21.7 11.9 28.9 10.9 6.3 25.4-.3 30.4-2.6 11.9-5.5 12.1-11.3 19.8-11.8 9.4-.6 12.8 7.7 26.5 11.8 7.4 2.2 14.7 4.5 21.2 1.3 9.7-4.8 11.8-18.8 13.2-28.9 2.1-14.5-1.5-15.8 0-27.6 2.9-23.1 18.3-29.5 14.6-39.4-3.8-10-19.6-3.9-38.4-17.1-18.6-13-19.5-30.4-30.4-30.2-3.5.3-4.6 2.1-21.2 17.3z" class="st0"/><path d="M85.1 96.8c.8.8 4.7 4.1 10.6 3.9 7.3-.2 11.5-5.9 11.9-6.6M60.2 91.3l.7-.7M128.9 89.5l.7-.7" class="st0"/></svg>