<svg xmlns="http://www.w3.org/2000/svg" id="_图层_2" data-name="图层 2" viewBox="0 0 192 192"><defs><style>.cls-1{fill:none;stroke:#000;stroke-linecap:round;stroke-linejoin:round;stroke-width:12px}</style></defs><path d="M58 22c.67 20.67 1.33 41.33 2 62M27.4 35c10.14.83 17.36 8.8 17.6 16 .27 8.51-9.13 18.95-21.99 17M93 31c-11.07 5.52-16.41 10.52-16 15 .89 9.85 29.56 17.19 86 22" class="cls-1"/><path d="M118 29c5.42 17.29 9.01 39.82 3 64-.6 2.41-1.27 4.74-2 7M119 29.26c18.78-10.06 28.76-5.24 30.81-4.14 16.01 8.56 21.96 43.25 4.97 83.89" class="cls-1"/><path d="M123 46a82.27 82.27 0 0 1 22-1c7.68.69 14.11 2.35 19 4M36.5 102.87l24.5-1.4L86.66 100M61.58 153.24 61 101.47M95.99 170l.51-48.49-73.5 1.46v43.84M38.4 138.49h3.58M38.4 151.13h3.58M75.68 138.49h3.83M75.68 151.13 80 151M119 119c2.2-.56 20.16-4.77 35 7 12.61 10 17.83 27.47 13 44M110 164c1.04-3.03 3.89-5.06 7-5 3.38.06 6.34 2.56 7 6M137.34 164c1.04-3.03 3.89-5.06 7-5 3.38.06 6.34 2.56 7 6M124.34 143c1.04-3.03 3.89-5.06 7-5 3.38.06 6.34 2.56 7 6" class="cls-1"/></svg>