<svg xmlns="http://www.w3.org/2000/svg" data-name="图层 2" viewBox="0 0 192 192"><path d="M151.34 66.95c-2.91 0-5.45.64-7.7 1.94-4.12 2.39-4.61 3.21-5.27 3.88v-.55c0-4.57-3.7-8.3-8.27-8.3-.21 0-.39 0-.61.03-3.73.06-6.3 1.3-8.33 3.39-.27.21-.45.55-.45.91 0 .61.48 1.09 1.06 1.12 0 0 .03.03.06.03.12 0 .3.03.48.06.85.24 1.48 1.03 1.55 1.97v76.53a2.16 2.16 0 0 0 2.03 2.03h10.42a2.16 2.16 0 0 0 2.03-2.03v-24.03c.12-.94 1.27-1.33 2-.67 1.12 1.03 2.33 1.85 3.64 2.51 2.15 1.09 4.64 1.61 7.42 1.61 7.15 0 24.03-5.3 24.03-30.15.06-24.39-16.91-30.3-24.09-30.3Zm-4.33 46.45c-2.06 0-3.82-.3-5.21-.91-.73-.3-1.36-.7-1.94-1.18-.91-.76-1.39-1.94-1.45-3.15V86.59c.06-1.06.45-2.09 1.15-2.85.64-.67 1.33-1.24 2.18-1.67 1.42-.76 3.48-1.45 5.51-1.45 3.15 0 12.66 2.39 12.66 16.63-.03 12.36-9.73 16.15-12.91 16.15ZM118.31 122.76s-.03-.03-.06-.03c-.12 0-.3-.03-.48-.06-.85-.24-1.48-1.03-1.55-1.97V70.07a2.16 2.16 0 0 0-2.03-2.03h-10.45a2.16 2.16 0 0 0-2.03 2.03v1.15c-3.76-1.3-10.45-1.12-10.45-1.12-23 0-26.45 20-26.45 30.78 0 7 3.94 26.63 22.48 26.63 3.73 0 6.91-1.09 9.21-2.94 1.94-1.58 2.54-2.61 3.45-3.67l.03-.03c.18-.24.48-.39.82-.39.45 0 .85.27 1 .67v-.09c0 .06.03.15.03.21.03.06.03.15.03.21.73 3.82 4.09 6.73 8.12 6.73.21 0 .42 0 .64-.03 3.73-.06 6.27-1.33 8.3-3.39.27-.21.45-.52.45-.91a1.1 1.1 0 0 0-1.06-1.12Zm-16.57-18.24c0 7.79-6.76 9.85-9.42 10.21-15.36 2.09-19-33.75 2.09-34.93 0 0 3.09-.39 5.67.36.18.06.36.09.55.15v.06h.06c.58 0 1.06.48 1.06 1.06v23.09Z"/><path d="M75.26 68.26a2.16 2.16 0 0 0 2.03-2.03V55.78a2.16 2.16 0 0 0-2.03-2.03H23.45c-.94-.06-1.7-.7-1.94-1.55-.06-.18-.06-.36-.06-.48v-.06c-.03-.61-.52-1.09-1.12-1.09-.36 0-.7.18-.91.45-2.06 2.06-3.33 4.64-3.39 8.39 0 .18-.03.39-.03.61 0 4.57 3.7 8.3 8.27 8.3h16.18c1.09.06 1.97.94 2.03 2.03v55.2c.06 1.15 1 2.03 2.15 2.03h10.3a2.16 2.16 0 0 0 2.03-2.03V70.29a2.16 2.16 0 0 1 2.03-2.03h16.27Z"/></svg>