<svg xmlns="http://www.w3.org/2000/svg" id="_图层_2" data-name="图层 2" viewBox="0 0 192 192"><defs><style>.cls-1{fill:none;stroke:#000;stroke-linecap:round;stroke-linejoin:round;stroke-width:12px}</style></defs><path d="M24 48.94V155.4M24 156c8.99-1.66 20.97-2.97 35-2 14.31.99 26.22 4.04 35 7M24 49c7.21-3.34 20.61-8.36 37.92-8 14.13.3 25.27 4.06 32.08 7M168 48.94V155.4M168 156c-8.99-1.66-20.97-2.97-35-2-14.31.99-26.22 4.04-35 7M168 49c-7.21-3.34-20.61-8.36-37.92-8-14.13.3-25.27 4.06-32.08 7M59.85 56l3.97 6.84M37 82.39l2.98-8.79h41.47l6.09 8.79M52.89 88.26h14.1M41.63 103.09H77.9M47.93 102.92c6.18 12.84 5.84 25.7-.99 32.26-1.4 1.34-3.58 2.91-6.95 3.91M71.77 116.61c-6.59 8.53-5.59 18.97 0 23.46 4.85 3.89 11.83 2.23 12.91 1.96M117.24 56l5.32 6.84M148.18 56l-6.59 6.84M106.52 69.69H153M117.24 84.49h23.33M117.24 97.54h24.35M106.52 115.44h42.68M130.36 69.69c-.99 15.31-1.99 30.63-2.98 45.94M127.38 115.63c1.23 3.34 2.54 8.73.99 14.66-.31 1.18-.78 2.94-1.99 4.89-3.51 5.66-9.78 7.34-11.92 7.82M138.31 131.27l9.93 9.78" class="cls-1"/></svg>