<svg xmlns="http://www.w3.org/2000/svg" data-name="图层 2" viewBox="0 0 192 192"><path d="m134.48 47.26-1.79 1.92C107.74 27.99 70.14 30.8 48.7 55.46c-20.09 23.1-19.02 57.54 2.45 79.39L39.37 147.2c-29.88-29.61-29.81-77.56.15-107.09 27.03-26.64 69.78-29.55 100.25-6.83a95.47 95.47 0 0 0 22.62-6.85l-25.61 25.31-2.31-4.48Zm-73.34 98.17 1.54 2.93 2.73-2.9c28.7 15.8 64.93 5.62 80.92-22.75a58.208 58.208 0 0 0-1.78-60.18l12.04-12.66c24.7 33.99 16.85 81.34-17.54 105.76-22.05 15.66-50.84 18.62-75.68 7.78L37.84 173c8.98-8.13 16.82-17.41 23.31-27.59v.03Zm41.49-18.94v-18.02c8.12-4.58 10.95-14.81 6.31-22.84-1.5-2.6-3.68-4.75-6.31-6.24V61.37c18.2 4.58 29.19 22.87 24.56 40.85-3.07 11.93-12.49 21.24-24.56 24.28Zm-17.07-47.1c-8.12 4.58-10.95 14.81-6.31 22.84 1.5 2.6 3.68 4.75 6.31 6.24v18.02c-18.2-4.58-29.19-22.87-24.56-40.85 3.07-11.93 12.49-21.24 24.56-24.28v18.02Z"/></svg>