<svg xmlns="http://www.w3.org/2000/svg" id="_图层_2" data-name="图层 2" viewBox="0 0 192 192"><defs><style>.cls-1{fill:none;stroke:#000;stroke-linecap:round;stroke-linejoin:round;stroke-width:12px}</style></defs><path d="M66.72 24.51c-28.18 7.55-46.27 34.37-44.61 60.2 1.51 23.55 18.9 37.85 21.76 40.14l8.7 45.15" class="cls-1"/><ellipse cx="111.87" cy="32.66" class="cls-1" rx="9.25" ry="10.66"/><path d="M54.75 58.37h114.34M91.74 72.17c-4.86 1.3-15.75 5.04-25.03 16.31-5.24 6.36-8.16 12.94-9.79 17.56M78.68 102.27c-17.22 17.15-16.11 43.88-5.44 53.93 8.23 7.75 23.59 6.97 35.91-3.76M137.44 80.95c8.59 18.47 5.8 38.62-4.35 47.66-5.9 5.26-15.45 7.76-23.94 3.76-1.34-.63-12.63-6.17-13.06-17.56-.39-10.41 8.53-19.87 17.41-20.07 8.84-.2 14.51 8.85 15.23 10.03 4.37 7.2 2.91 13.5 4.35 26.34.74 6.62 2.4 16.18 6.53 27.59" class="cls-1"/></svg>