<svg xmlns="http://www.w3.org/2000/svg" id="_图层_2" data-name="图层 2" viewBox="0 0 192 192"><defs><style>.cls-1{fill:none;stroke:#000;stroke-linecap:round;stroke-linejoin:round;stroke-width:12px}</style></defs><path d="M46.46 132h104.02M150.48 132c9.45-1.36 16.87-7.01 18.42-14.16 1.6-7.4-3.56-14.23-4.33-15.25-5.17-6.83-10.48-5.39-13-10.89-2.85-6.21 3.09-9.9 1.08-17.43-2.1-7.88-11.41-14.34-19.5-14.16-6.83.15-8.08 4.94-14.09 4.36-7.24-.7-8.01-7.9-16.25-11.98-8.29-4.11-19.79-2.91-27.09 2.18-10.05 7-5.46 16.69-15.17 23.97-9.85 7.38-18.16.08-28.17 7.63-6.9 5.2-12.25 15.68-9.75 26.15 2.47 10.35 12.03 18.31 23.84 19.61" class="cls-1"/><path d="m78.97 80.8 16.55 10.07 18.12-12.08-1.73 37.15-30.83 1.78-2.11-36.92z" class="cls-1"/></svg>