<svg xmlns="http://www.w3.org/2000/svg" id="_图层_2" data-name="图层 2" viewBox="0 0 192 192"><defs><style>.cls-1{fill:none;stroke:#000;stroke-linecap:round;stroke-linejoin:round;stroke-width:12px}</style></defs><path d="M114.75 130.26H55.2M57.86 130.26c-11.07 3.13-22.78-.28-29.68-8.66-9.04-10.97-7.4-27.49 0-34.63 6.53-6.31 13.22-1.1 23.5-7.42 11.78-7.24 8.28-17.31 18.55-24.73 12.79-9.24 36.37-6.72 46.99 4.95 8.46 9.3 3.74 18.96 12.37 24.73 9.85 6.59 19.93-3.36 29.68 2.47 10.23 6.12 14.85 26.47 6.18 39.57-11.28 17.06-41.12 15.83-49.46 3.71-4.85-7.04-4.4-20.61 3.71-25.97 6.09-4.03 15.28-2.6 21.02 2.47 5.12 4.52 5.99 10.62 6.18 12.37" class="cls-1"/></svg>