<svg xmlns="http://www.w3.org/2000/svg" id="_图层_2" data-name="图层 2" viewBox="0 0 192 192"><defs><style>.cls-1{fill:none;stroke:#000;stroke-linecap:round;stroke-linejoin:round;stroke-width:12px}</style></defs><path d="M81.92 110.89c5.14 1.67 3.94 17.66 2.67 25.36-1.12 6.85-3.4 20.69-11.58 22.74-4.2 1.05-8.35-1.41-8.91-1.75-5.45-3.32-3.57-8.01-8.02-11.37-5.18-3.91-10.15.61-21.39-2.62-5.68-1.63-10.07-4.41-9.8-5.25.34-1.05 7.93 2.43 16.93 0 3.67-.99 6.31-2.7 11.58-6.12 3.97-2.57 6.58-4.67 11.58-8.75 14.32-11.65 15.4-12.74 16.93-12.24ZM103.34 108.33c3.21-4.28 18.33 1.78 25.4 5.34 6.29 3.17 19 9.56 18.46 17.84-.28 4.25-3.94 7.36-4.45 7.78-4.9 4.06-8.87.86-13.5 3.97-5.39 3.62-2.55 9.66-9.15 19.15-3.34 4.8-7.39 8.04-8.11 7.53-.91-.64 4.81-6.65 5.23-15.8.17-3.74-.67-6.73-2.35-12.71-1.27-4.5-2.5-7.59-4.9-13.52-6.87-16.96-7.59-18.31-6.63-19.59ZM107.47 87.56c-3.15-4.32 7.39-16.56 13.03-22.06 5.01-4.9 15.14-14.78 22.99-11.71 4.03 1.57 5.91 5.96 6.16 6.56 2.42 5.83-1.91 8.54-.32 13.83 1.85 6.15 8.57 5.36 15.73 14.46 3.62 4.6 5.51 9.38 4.79 9.9-.9.65-4.96-6.54-13.7-9.77-3.57-1.32-6.72-1.45-13.04-1.73-4.75-.21-8.12-.02-14.61.39-18.56 1.17-20.09 1.43-21.03.14ZM88.61 77.27c-5.16 1.61-13.76-12.01-17.35-18.98-3.19-6.19-9.64-18.7-4.25-25.08 2.77-3.27 7.6-3.68 8.26-3.73 6.4-.45 7.69 4.42 13.3 4.57 6.53.17 7.85-6.35 18.87-10.22 5.57-1.96 10.79-2.24 11.07-1.41.35 1.04-7.87 2.61-13.7 9.77-2.38 2.92-3.49 5.83-5.71 11.64-1.67 4.37-2.53 7.58-4.13 13.76-4.6 17.69-4.82 19.19-6.36 19.67ZM72.82 91.7c-.04 5.31-15.89 9.13-23.75 10.33-6.99 1.07-21.1 3.22-25.62-3.79-2.32-3.6-1.22-8.23-1.06-8.86 1.54-6.11 6.66-5.81 8.54-11 2.19-6.04-3.72-9.29-4.07-20.77-.17-5.81 1.16-10.77 2.06-10.77 1.12 0 .09 8.15 5.23 15.8 2.1 3.12 4.57 5.05 9.51 8.92 3.72 2.91 6.56 4.7 12.06 8.11 15.72 9.76 17.11 10.43 17.1 12.02Z" class="cls-1"/></svg>